<svg id="Layer_1" data-name="Layer 1" xmlns="http://www.w3.org/2000/svg" viewBox="0 0 10 10"><defs><style>.cls-1{fill:#fff;}.cls-2{fill:#d41c58;}</style></defs><title>12- mablagh</title><circle class="cls-1" cx="5" cy="5" r="4.34"/><path class="cls-1" d="M5,0a5,5,0,1,0,5,5A5,5,0,0,0,5,0ZM5,9.5A4.5,4.5,0,1,1,9.5,5,4.51,4.51,0,0,1,5,9.5Z"/><path class="cls-2" d="M5.43,4.62V2.79a.94.94,0,0,1,.36.32.43.43,0,0,0,.72-.47,1.79,1.79,0,0,0-1.08-.76v-.5a.43.43,0,0,0-.86,0v.5a1.8,1.8,0,0,0,0,3.5V7.22a.93.93,0,0,1-.36-.32.43.43,0,0,0-.6-.12A.42.42,0,0,0,3.43,7a.43.43,0,0,0,.06.32,1.79,1.79,0,0,0,1.08.76v.5a.43.43,0,0,0,.86,0v-.5a1.8,1.8,0,0,0,0-3.5Zm.52,1.75a1,1,0,0,1-.52.84V5.53A1,1,0,0,1,5.95,6.37ZM4.05,3.63a1,1,0,0,1,.52-.84V4.47A1,1,0,0,1,4.05,3.63Z"/></svg>