<svg id="Layer_1" data-name="Layer 1" xmlns="http://www.w3.org/2000/svg" viewBox="0 0 10 10"><defs><style>.cls-1{fill:#fff;}.cls-2{fill:#d41c58;}</style></defs><title>12- tarikh</title><rect class="cls-1" x="0.99" y="3.89" width="8" height="5.11"/><path class="cls-1" d="M9.24.78H8.36V0H7.58V.78H2.42V0H1.64V.78H.76A.76.76,0,0,0,0,1.54V9.24A.76.76,0,0,0,.76,10H9.24A.76.76,0,0,0,10,9.24V1.54A.76.76,0,0,0,9.24.78Zm0,8.44H.78V3.67H9.22Zm0-6.33H.78V2a.39.39,0,0,1,.39-.39h.47v.78h.78V1.56H7.58v.78h.78V1.56h.47A.39.39,0,0,1,9.22,2Z"/><rect class="cls-2" x="1.48" y="4.49" width="0.78" height="0.78"/><rect class="cls-2" x="3.05" y="4.49" width="0.78" height="0.78"/><rect class="cls-2" x="4.61" y="4.49" width="0.78" height="0.78"/><rect class="cls-2" x="6.17" y="4.49" width="0.78" height="0.78"/><rect class="cls-2" x="7.73" y="4.49" width="0.78" height="0.78"/><rect class="cls-2" x="1.48" y="6.05" width="0.78" height="0.78"/><rect class="cls-2" x="3.05" y="6.05" width="0.78" height="0.78"/><rect class="cls-2" x="4.61" y="6.05" width="0.78" height="0.78"/><rect class="cls-2" x="6.17" y="6.05" width="0.78" height="0.78"/><rect class="cls-2" x="1.48" y="7.62" width="0.78" height="0.78"/><rect class="cls-2" x="3.05" y="7.62" width="0.78" height="0.78"/><rect class="cls-2" x="4.61" y="7.62" width="0.78" height="0.78"/><rect class="cls-2" x="6.17" y="7.62" width="0.78" height="0.78"/><rect class="cls-2" x="7.73" y="6.05" width="0.78" height="0.78"/></svg>