<svg id="Layer_1" data-name="Layer 1" xmlns="http://www.w3.org/2000/svg" viewBox="0 0 19 19"><defs><style>.cls-1{fill:#fff;}</style></defs><title>3 - icon sharzhe kife pool copy</title><path class="cls-1" d="M13.88,18.25V19H5.12v-.72a.72.72,0,0,1,.72-.73H7.32a2.18,2.18,0,0,1,1.45-2V7a1.38,1.38,0,0,1-.65-1.16h2.75A1.37,1.37,0,0,1,10.23,7v8.57a2.18,2.18,0,0,1,1.45,2h1.47a.72.72,0,0,1,.73.73ZM19,11.67a3.87,3.87,0,0,1-7.31,0h.84L15,5.13a.38.38,0,0,1,.69,0l2.46,6.54Zm-1.62,0-2-5.38-2,5.38ZM3.65,4.37a.73.73,0,0,0,.7-.52,7,7,0,0,0,.74-.35,4.3,4.3,0,0,1,1.85-.6,1.62,1.62,0,0,1,1.25.54c0,.06,0,.12,0,.19a1.33,1.33,0,1,0,2.66,0,1.08,1.08,0,0,0,0-.19,1.66,1.66,0,0,1,1.26-.54,4.3,4.3,0,0,1,1.85.6,7,7,0,0,0,.74.35.72.72,0,0,0,.7.52.74.74,0,1,0-.54-1.24l-.57-.28a4.83,4.83,0,0,0-2.18-.68,2.37,2.37,0,0,0-1.58.57,1.39,1.39,0,0,0-.58-.36.86.86,0,0,0,.47-.76C10.37,1.14,9.5,0,9.5,0s-.87,1.11-.87,1.59a.86.86,0,0,0,.47.76,1.33,1.33,0,0,0-.58.36,2.37,2.37,0,0,0-1.58-.57,4.83,4.83,0,0,0-2.18.68l-.57.28a.73.73,0,0,0-.54-.24.74.74,0,0,0,0,1.48Zm0,9.9A3.88,3.88,0,0,1,0,11.67H.84L3.31,5.13a.38.38,0,0,1,.69,0l2.47,6.54h.84a3.89,3.89,0,0,1-3.66,2.6Zm2-2.6-2-5.38-2,5.38Zm0,0"/></svg>