<svg id="Layer_1" data-name="Layer 1" xmlns="http://www.w3.org/2000/svg" viewBox="0 0 55 55"><defs><style>.cls-1{fill:#eaf1fa;}.cls-2,.cls-3{fill:#8aa2c2;}.cls-3{stroke:#eaf1fa;stroke-miterlimit:10;}</style></defs><title>6- bime</title><circle class="cls-1" cx="27.5" cy="27.5" r="27.5"/><circle class="cls-1" cx="27.08" cy="27.5" r="11.94"/><path class="cls-2" d="M27.5,20A7.53,7.53,0,1,0,35,27.5,7.54,7.54,0,0,0,27.5,20Zm5.06,6.14-5.38,5.38a1.06,1.06,0,0,1-.76.31,1.07,1.07,0,0,1-.76-.31l-3.22-3.23A1.07,1.07,0,0,1,24,26.74l2.46,2.47L31,24.59a1.07,1.07,0,0,1,1.52,1.52Zm0,0"/><path class="cls-3" d="M40.41,13.52H37.89a13.6,13.6,0,0,1-9.63-4.06,1.07,1.07,0,0,0-1.52,0,13.6,13.6,0,0,1-9.63,4.06H14.59a1.07,1.07,0,0,0-1.07,1.07V27.5c0,9.67,7,14.16,11.68,17.09a9.39,9.39,0,0,0,2.3,1.27,9.36,9.36,0,0,0,2.26-1.24c4.67-2.93,11.72-7.43,11.72-17.12V14.59a1.07,1.07,0,0,0-1.07-1.07ZM27.5,37.18a9.68,9.68,0,1,1,9.68-9.68,9.69,9.69,0,0,1-9.68,9.68Zm0,0"/></svg>