<svg id="Layer_1" data-name="Layer 1" xmlns="http://www.w3.org/2000/svg" viewBox="0 0 55 55"><defs><style>.cls-1{fill:#eaf1fa;}.cls-2{fill:#8aa2c2;}</style></defs><title>پاکت</title><circle class="cls-1" cx="27.5" cy="27.5" r="27.5"/><path class="cls-2" d="M27.5,15a.62.62,0,0,0,.62-.62.62.62,0,0,0-1.24,0A.62.62,0,0,0,27.5,15Z"/><path class="cls-2" d="M27.5,22.33a.61.61,0,0,0,.62-.61.62.62,0,1,0-1.24,0A.61.61,0,0,0,27.5,22.33Z"/><path class="cls-2" d="M39.81,11.25H15.19a.61.61,0,0,0-.61.62v.46l2.29,4.13a1.85,1.85,0,0,0,1.62.95h8.39V16.06a1.85,1.85,0,1,1,1.24,0v1.35h8.39a1.85,1.85,0,0,0,1.62-.95l2.29-4.13v-.46A.61.61,0,0,0,39.81,11.25Z"/><path class="cls-2" d="M36.51,18.64H28.12V20a1.85,1.85,0,1,1-1.24,0V18.64H18.49a3.08,3.08,0,0,1-2.69-1.58l-1.22-2.2V43.13a.61.61,0,0,0,.61.62H39.81a.61.61,0,0,0,.61-.62V14.86l-1.22,2.2A3.08,3.08,0,0,1,36.51,18.64Z"/></svg>