<svg id="Layer_1" data-name="Layer 1" xmlns="http://www.w3.org/2000/svg" viewBox="0 0 19 19"><defs><style>.cls-1{fill:#fff;}</style></defs><title>icon web app</title><path class="cls-1" d="M18.42,1.48H.58a.29.29,0,0,0-.29.28V13.83a.29.29,0,0,0,.29.28H8.07l-.6,1.79H6.15a.81.81,0,1,0,0,1.62h6.7a.81.81,0,1,0,0-1.62H11.53l-.6-1.79h7.49a.29.29,0,0,0,.29-.28V1.76a.29.29,0,0,0-.29-.28ZM.87,2.05H18.13v.37H.87ZM18.13,3v9H.87V3Zm-5,13.72a.24.24,0,0,1-.24.24H6.15a.24.24,0,1,1,0-.48h6.7a.24.24,0,0,1,.24.24Zm-2.17-.81H8.08l.59-1.79h1.66Zm7.21-2.36H.87V12.6H18.13Zm0,0"/><path class="cls-1" d="M8.47,13.36h2.06a.29.29,0,0,0,0-.57H8.47a.29.29,0,0,0,0,.57Zm0,0"/></svg>